<?xml version="1.0" encoding="utf-8"?>
<!-- Generator: Adobe Illustrator 25.4.1, SVG Export Plug-In . SVG Version: 6.00 Build 0)  -->
<svg version="1.1" id="Layer_3" xmlns="http://www.w3.org/2000/svg" xmlns:xlink="http://www.w3.org/1999/xlink" x="0px" y="0px"
	 viewBox="0 0 30 30" style="enable-background:new 0 0 30 30;" xml:space="preserve">
<style type="text/css">
	.st0{fill:#8A0036;}
</style>
<path class="st0" d="M15,0C6.7,0,0,6.7,0,15c0,8.3,6.7,15,15,15s15-6.7,15-15C30,6.7,23.3,0,15,0z M20.4,24.4h-3.3V8.1
	c0,0-0.3,0-1.7,0c-1.9,0-3.9,1-3.9,3.5c0,1.7,0.9,3.1,2,3.9c1.1,0.8,2.6,1.8,2.6,1.8l-4.7,7.1H7.9l4.3-6.4c0,0-0.7-0.5-1.4-1.1
	c-1.1-1-2.4-2.6-2.4-5.3c0-3.2,1.8-4.9,4.1-5.6c1.5-0.5,3.3-0.5,4.7-0.5h3.3V24.4z"/>
</svg>
